<?xml version="1.0" encoding="iso-8859-1"?>
<!-- Generator: Adobe Illustrator 19.1.0, SVG Export Plug-In . SVG Version: 6.00 Build 0)  -->
<svg xmlns="http://www.w3.org/2000/svg" xmlns:xlink="http://www.w3.org/1999/xlink" version="1.1" id="Capa_1" x="0px" y="0px" viewBox="0 0 314.709 314.709" style="enable-background:new 0 0 64 64;" xml:space="preserve" width="64px" height="64px">
<g>
	<path d="M238.635,314.709c-28.195,0-51.125-22.931-51.125-51.125c0-6.922,1.369-13.644,4.055-19.968   c1.395-3.265,5.161-4.794,8.438-3.393c3.265,1.388,4.782,5.161,3.387,8.432c-2.012,4.724-3.027,9.756-3.027,14.936   c0,21.099,17.173,38.272,38.272,38.272s38.272-17.173,38.272-38.272s-17.173-38.265-38.272-38.265c-0.553,0-1.08,0.013-1.607,0.039   l-194.714-0.045c-3.554,0-6.427-2.879-6.427-6.427c0-3.554,2.879-6.427,6.427-6.427l0,0l194.405,0.045   c0.424-0.032,1.157-0.045,1.922-0.045c28.195,0,51.125,22.931,51.125,51.119C289.76,291.778,266.829,314.709,238.635,314.709z    M148.659,267.453c0-15.939-12.976-28.908-28.921-28.908l-0.964,0.013l-76.454-0.013l0,0c-3.548,0-6.427,2.873-6.427,6.427   c0,3.548,2.873,6.427,6.427,6.427l76.614,0.013l0.81-0.013c8.863,0,16.067,7.204,16.067,16.054c0,8.856-7.204,16.061-16.067,16.061   c-8.85,0-16.054-7.204-16.054-16.061c0-3.554-2.873-6.427-6.427-6.427c-3.554,0-6.427,2.873-6.427,6.427   c0,15.939,12.969,28.914,28.908,28.914C135.683,296.367,148.659,283.391,148.659,267.453z M304.111,135.953   c0-17.854-7.706-34.306-21.292-45.733c0.424-3.355,0.643-6.536,0.643-9.647C283.462,36.145,247.311,0,202.876,0   c-26.408,0-51.222,13.162-66.196,34.743c-7.384-3.715-15.54-5.656-23.908-5.656c-27.526,0-50.251,20.951-53.06,47.944   c-28.362,5.096-49.114,29.506-49.114,58.915c0,33.047,26.89,59.924,59.93,59.924h173.653   C277.221,195.877,304.111,168.994,304.111,135.953z M135.221,48.741l5.688,3.792l3.432-5.913   c12.115-20.829,34.538-33.767,58.536-33.767c37.346,0,67.732,30.38,67.732,67.72c0,3.535-0.341,7.23-1.028,11.311l-0.668,3.895   l3.188,2.346c12.179,8.998,19.152,22.783,19.152,37.828c0,25.958-21.112,47.07-47.07,47.07H70.528   c-25.958,0-47.077-21.112-47.077-47.07c0-24.583,18.464-44.718,42.957-46.852l5.855-0.746v-5.893   c0-22.346,18.169-40.521,40.508-40.521C120.792,41.948,128.556,44.294,135.221,48.741z" fill="#006DF0"/>
</g>
<g>
</g>
<g>
</g>
<g>
</g>
<g>
</g>
<g>
</g>
<g>
</g>
<g>
</g>
<g>
</g>
<g>
</g>
<g>
</g>
<g>
</g>
<g>
</g>
<g>
</g>
<g>
</g>
<g>
</g>
</svg>
